<?xml version="1.0" standalone="no"?><!DOCTYPE svg PUBLIC "-//W3C//DTD SVG 1.1//EN" "http://www.w3.org/Graphics/SVG/1.1/DTD/svg11.dtd"><svg t="1505112337499" class="icon" style="" viewBox="0 0 1024 1024" version="1.1" xmlns="http://www.w3.org/2000/svg" p-id="17591" xmlns:xlink="http://www.w3.org/1999/xlink" width="32" height="32"><defs><style type="text/css"></style></defs><path d="M484.2 301.4c-1.2 20.4-3 40-5.3 59.1H542c-2.3-19.1-4.1-38.7-5.3-59.1h-52.5zM471.8 407.7c-13.8 78.1-37.2 146.4-69.1 212.7h215.5c-31.9-66.3-55.3-134.7-69.1-212.7h-77.3z" fill="#3CC3C0" p-id="17592"></path><path d="M469.9 1007.6c308.1 24.3 563.3-230.9 539-539C989.7 226.3 793.4 29.9 551 10.8 242.9-13.5-12.2 241.7 12 549.8c19.2 242.3 215.5 438.7 457.9 457.8zM639 832.4c-12.1 5-26.1-0.6-31.2-12.7-12.8-31-50.6-56.5-97.4-56.4-46.8-0.1-84.6 25.4-97.4 56.4-5.1 12-19 17.7-31.2 12.7-12.1-5-17.9-18.9-12.8-30.9 22-51.5 77.6-85.3 141.3-85.4 63.7 0.1 119.3 33.9 141.3 85.4 5.3 12-0.4 25.8-12.6 30.9z m-396-36.5c30.6-44.8 57.5-86.5 80.9-127.1h-4c-13.2 0-23.8-10.6-23.8-23.6 0-13.1 10.7-23.6 23.8-23.6h29.7c35-68.5 59.6-136 74-212.7h-8.3c-13.1 0-23.8-10.6-23.8-23.6 0-13.1 10.7-23.7 23.8-23.7H431c3.4-26.9 5.7-54.9 6.9-84.6 0.5-13.1 11.6-23.2 24.7-22.7 1.9 0.1 3.7 0.4 5.5 0.9h18.6v-47.3c0-13 10.7-23.6 23.8-23.6 13.2 0 23.8 10.6 23.8 23.6v47.3h18.6c1.8-0.5 3.6-0.8 5.5-0.9 13.2-0.5 24.2 9.6 24.8 22.7 1.2 29.7 3.5 57.7 6.9 84.6h15.7c13.2 0 23.8 10.6 23.8 23.7s-10.7 23.6-23.8 23.6h-8.3c14.4 76.7 38.9 144.3 73.9 212.7H701c13.2 0 23.8 10.6 23.8 23.6 0 13.1-10.7 23.6-23.8 23.6h-4c23.3 40.6 50.2 82.3 80.8 127.1 7.4 10.8 4.5 25.5-6.4 32.8-10.9 7.3-25.7 4.5-33.1-6.3-36.5-53.4-68.6-103.5-96-153.6H378.4c-27.4 50.1-59.5 100.2-96 153.6-7.4 10.8-22.2 13.6-33.1 6.3-10.8-7.3-13.7-22-6.3-32.8z" fill="#3CC3C0" p-id="17593"></path></svg>