<?xml version="1.0" standalone="no"?><!DOCTYPE svg PUBLIC "-//W3C//DTD SVG 1.1//EN" "http://www.w3.org/Graphics/SVG/1.1/DTD/svg11.dtd"><svg t="1505112398712" class="icon" style="" viewBox="0 0 1024 1024" version="1.1" xmlns="http://www.w3.org/2000/svg" p-id="18022" xmlns:xlink="http://www.w3.org/1999/xlink" width="32" height="32"><defs><style type="text/css"></style></defs><path d="M512 512m-512 0a512 512 0 1 0 1024 0 512 512 0 1 0-1024 0Z" fill="#2CA6E0" p-id="18023"></path><path d="M412.641584 592.09505c-31.429703 0-56.776238 25.346535-56.776237 56.776237 0 31.429703 25.346535 56.776238 56.776237 56.776238 31.429703 0 56.776238-25.346535 56.776238-56.776238 0-31.429703-25.346535-56.776238-56.776238-56.776237z m0 83.136633c-14.194059 0-25.346535-11.152475-25.346534-25.346534s11.152475-25.346535 25.346534-25.346535 25.346535 11.152475 25.346535 25.346535-11.152475 25.346535-25.346535 25.346534z m387.29505-83.136633c-31.429703 0-56.776238 25.346535-56.776238 56.776237 0 31.429703 25.346535 56.776238 56.776238 56.776238 31.429703 0 56.776238-25.346535 56.776237-56.776238 0-31.429703-25.346535-56.776238-56.776237-56.776237z m0 83.136633c-14.194059 0-25.346535-11.152475-25.346535-25.346534s11.152475-25.346535 25.346535-25.346535 25.346535 11.152475 25.346534 25.346535-11.152475 25.346535-25.346534 25.346534z m-518.083169-96.316832s23.318812-3.041584 75.025743-11.152475c52.720792-7.09703 163.231683-4.055446 163.231683-4.055445 15.207921 0 43.59604 11.152475 43.59604 43.596039v2.027723h180.467326c-8.110891 11.152475-13.180198 25.346535-13.180198 40.554456 0 4.055446 0 8.110891 1.013862 12.166336H474.487129c1.013861-4.055446 1.013861-8.110891 1.013861-12.166336 0-36.49901-29.40198-65.90099-65.90099-65.900991s-65.90099 29.40198-65.90099 65.900991c0 4.055446-4.055446 10.138614-9.124753 15.20792l-50.693069-17.235643c-10.138614-4.055446-19.263366-12.166337-20.277228-22.304951l1.013862-28.388119c-1.013861-10.138614 7.09703-18.249505 17.235643-18.249505z m581.956436 70.970298c0 4.055446 0 8.110891-1.013861 12.166336h31.429703c10.138614 0 18.249505-8.110891 18.249505-18.249505V628.594059c0-10.138614-8.110891-18.249505-18.249505-18.249505h-44.609901c9.124752 10.138614 14.194059 24.332673 14.194059 39.540595z m5.069307-162.217822l-116.594059-131.80198c-11.152475-13.180198-35.485149-23.318812-52.720793-23.318812H128.760396c-5.069307 0-9.124752 4.055446-9.124752 9.124752s4.055446 9.124752 9.124752 10.138614l193.647525 12.166337c-14.194059 3.041584-24.332673 8.110891-30.415842 11.152475v32.443564H169.314851c-5.069307 0-9.124752 4.055446-9.124752 9.124753s4.055446 9.124752 9.124752 10.138614l152.079208 11.152475c-13.180198 3.041584-23.318812 7.09703-29.40198 11.152475v32.443564h-81.108911c-5.069307 0-9.124752 4.055446-9.124752 9.124753s4.055446 9.124752 9.124752 10.138614l110.510891 11.152475c-13.180198 3.041584-23.318812 7.09703-29.40198 11.152475v48.665347l63.873268-9.124753c29.40198-4.055446 77.053465-5.069307 111.524752-5.069307 28.388119 0 50.693069 1.013861 52.720792 1.013862 18.249505 0 47.651485 12.166337 49.679208 45.623762h179.453465c12.166337-12.166337 29.40198-20.277228 47.651486-20.277228 18.249505 0 35.485149 8.110891 47.651485 20.277228h45.623762v-60.831683c0-18.249505-9.124752-42.582178-21.291089-55.762376z m-418.724753 32.443564h-94.289108v-15.207921c27.374257-24.332673 60.831683-55.762376 60.831683-84.150495 0-14.194059-8.110891-20.277228-19.263367-20.277227-12.166337 0-22.30495 6.083168-29.40198 13.180198L354.851485 395.405941c10.138614-10.138614 24.332673-18.249505 46.637624-18.249505 30.415842 0 45.623762 17.235644 45.623762 39.540594 0 29.40198-25.346535 56.776238-51.70693 81.108911 0 0 9.124752-1.013861 15.20792-1.013862h39.540594v23.318812z m113.552476-29.40198h-20.277228v29.40198h-27.374257v-29.40198h-64.887129v-19.263366l65.90099-92.261387h26.360396v89.219802h20.277228v22.304951z m50.693069-29.40198h-15.207921V425.821782c0-5.069307-2.027723-8.110891-7.097029-8.110891-6.083168 0-10.138614 5.069307-11.152476 7.09703v37.512871h-15.207921v-82.122772h15.207921v33.457426c3.041584-3.041584 8.110891-8.110891 17.235644-8.110892 12.166337 0 16.221782 8.110891 16.221782 18.249505v37.512872z m195.675248 27.374257H662.051485c-6.083168 0-10.138614-5.069307-10.138614-10.138614V366.00396c0-6.083168 5.069307-10.138614 10.138614-10.138613h40.554456c10.138614 0 27.374257 10.138614 37.512871 22.30495l79.081188 89.219802c11.152475 12.166337 7.09703 21.291089-9.124752 21.291089z m-295.033664-71.984158v52.720792h-21.291089c-7.09703 0-13.180198 0-16.221782 1.013861l37.512871-53.734653z" fill="#FFFFFF" p-id="18024"></path></svg>