<?xml version="1.0" standalone="no"?><!DOCTYPE svg PUBLIC "-//W3C//DTD SVG 1.1//EN" "http://www.w3.org/Graphics/SVG/1.1/DTD/svg11.dtd"><svg t="1505112406638" class="icon" style="" viewBox="0 0 1024 1024" version="1.1" xmlns="http://www.w3.org/2000/svg" p-id="18275" xmlns:xlink="http://www.w3.org/1999/xlink" width="32" height="32"><defs><style type="text/css"></style></defs><path d="M32 512c0 265.097 214.903 480 480 480s480-214.903 480-480c0-265.097-214.903-480-480-480-265.097 0-480 214.903-480 480z" fill="#6DBB58" p-id="18276"></path><path d="M344.96 711.040h334.080v70.4h-334.080z" fill="#FFBB54" p-id="18277"></path><path d="M771.84 468.48c-2.229-50.58-42.013-91.191-92.034-94.716 1.705-6.006 2.76-12.903 2.76-20.046 0-39.234-31.806-71.040-71.040-71.040-10.305 0-20.098 2.195-28.937 6.142-23.094-26.485-57.152-42.962-95.058-42.962-56.234 0-103.999 36.263-121.184 86.681-51.429 18.442-87.549 66.129-87.549 122.252 0 67.174 51.744 122.262 117.548 127.58l260.933-11.491c6.060 1.308 13.023 2.057 20.16 2.057s14.1-0.749 20.813-2.172c42.495-11.276 73.79-49.956 73.79-95.945 0-2.23-0.074-4.444-0.218-6.637z" fill="#FFF3D4" p-id="18278"></path><path d="M224 464c-0.339 5.174-0.532 11.217-0.532 17.305 0 95.647 47.685 180.156 120.578 231.051l334.994 0.605c73.807-51.5 121.493-136.009 121.493-231.655 0-6.088-0.193-12.131-0.574-18.124z" fill="#FFCE47" p-id="18279"></path></svg>