<?xml version="1.0" standalone="no"?><!DOCTYPE svg PUBLIC "-//W3C//DTD SVG 1.1//EN" "http://www.w3.org/Graphics/SVG/1.1/DTD/svg11.dtd"><svg t="1505112391074" class="icon" style="" viewBox="0 0 1024 1024" version="1.1" xmlns="http://www.w3.org/2000/svg" p-id="17899" xmlns:xlink="http://www.w3.org/1999/xlink" width="32" height="32"><defs><style type="text/css"></style></defs><path d="M810.496 360a36.266667 36.266667 0 0 0 0.170667-3.562667c0-13.013333-6.890667-24.661333-18.005334-30.378666L553.514667 202.24a89.237333 89.237333 0 0 0-83.029334 0l-239.104 123.818667c-11.093333 5.717333-18.048 17.365333-18.048 30.378666 0 12.970667 6.933333 24.618667 18.048 30.378667l67.456 34.922667v268.117333c0 18.368 10.496 39.893333 25.002667 50.794667 4.416 5.205333 18.858667 15.146667 42.112 24.490666 36.48 14.634667 84.928 23.253333 146.901333 23.253334 61.994667 0 110.08-8.533333 145.962667-22.997334 21.248-8.576 34.965333-17.728 42.432-25.216 14.421333-11.306667 24.149333-32.149333 24.149333-50.325333V421.632L768 399.594667v109.802666c0 11.605333 9.557333 21.269333 21.333333 21.269334 11.861333 0 21.333333-9.514667 21.333334-21.269334v-149.397333h-0.170667z m-468.992 83.84l128.981333 66.794667c13.184 6.826667 27.370667 10.24 41.514667 10.24s28.330667-3.413333 41.514667-10.24l129.216-66.901334v246.122667c0 5.504-4.224 14.229333-7.936 16.853333l-3.626667 3.2c-2.645333 2.944-11.413333 9.088-28.330667 15.914667-30.570667 12.330667-73.258667 19.904-129.984 19.904s-99.797333-7.68-131.029333-20.202667c-17.386667-6.976-26.624-13.312-29.568-16.469333-6.442667-5.269333-10.752-14.08-10.752-19.2V443.84zM512 1024C229.226667 1024 0 794.773333 0 512S229.226667 0 512 0s512 229.226667 512 512-229.226667 512-512 512z m-21.290667-784a45.098667 45.098667 0 0 1 42.581334 0l224.896 116.437333-224.896 116.437334a45.098667 45.098667 0 0 1-42.581334 0L265.813333 356.437333l224.896-116.437333z" fill="#2062E6" p-id="17900"></path></svg>