<?xml version="1.0" standalone="no"?><!DOCTYPE svg PUBLIC "-//W3C//DTD SVG 1.1//EN" "http://www.w3.org/Graphics/SVG/1.1/DTD/svg11.dtd"><svg t="1505112410259" class="icon" style="" viewBox="0 0 1024 1024" version="1.1" xmlns="http://www.w3.org/2000/svg" p-id="18401" xmlns:xlink="http://www.w3.org/1999/xlink" width="32" height="32"><defs><style type="text/css"></style></defs><path d="M302.531779 551.768749c25.628704 6.088672 52.721759 11.244089 81.193207 14.999622-19.603477-224.208435 50.514487-414.535201 103.119589-521.887184-132.609227 7.04444-250.53708 69.419046-331.145979 164.486238 71.02973 69.758784 167.762865 194.548928 146.833183 342.401324z m-57.611115-23.146163c9.917884-121.544217-60.083423-217.397309-121.258715-276.82377-37.742603 56.370869-63.541175 121.417327-73.809029 191.536315 38.633902 25.671683 105.177458 63.838957 194.421014 92.24696 0.233314-2.291183 0.455371-4.625344 0.64673-6.959505z m377.12108 17.22736c0.488117 5.941316 1.125637 11.775184 1.909489 17.524118 225.694275-35.260062 328.759629-147.767462 341.848739-163.042353-20.663622-84.502579-64.240093-160.031786-123.814934-219.520669-77.373205 61.46284-232.906537 205.878974-219.943294 365.038904z m-197.784622-29.701463c0.76441 19.11536 2.046612 37.509289 3.776 55.245232 30.794353 2.376117 62.999846 3.054569 96.52131 1.654686a927.002852 927.002852 0 0 0 46.589085-3.139503C552.685119 379.221928 723.811592 209.877031 800.655747 144.129608c-71.412446-56.242955-159.607114-92.076068-255.819386-98.759281-46.249347 74.488505-129.648802 242.092757-120.579239 470.778156z" fill="#E68C49" p-id="18402"></path><path d="M978.126718 481.227136c-35.409464 18.140149-81.066317 39.758516-139.196249 65.471131-70.182432 31.103392-139.090848 50.705845-205.496257 61.590753 42.410925 146.918118 179.867554 217.863936 210.631208 232.099149 83.505879-84.439134 135.059022-200.551642 135.059022-328.73814 0-10.225899-0.339738-20.366863-0.997724-30.422893z m-321.652767 275.719622c-40.776705-47.290049-65.216327-94.876857-77.288271-141.573389-50.386574 4.880147-99.088786 4.965082-145.539724 1.549285 36.19434 241.49924 156.296719 342.232478 156.296719 342.232479s0.848321 5.070482 1.951445 13.111622c71.369468-12.326746 137.202848-40.797172 193.572694-81.616856-30.170137-25.291013-71.837118-67.446112-128.992863-133.703141zM388.933615 612.488669c-33.393551-4.137227-65.450664-10.014074-95.938026-17.077957-13.800307 46.547129-39.938618 94.940302-82.508155 144.308686-22.477944 26.053376-42.537815 48.372707-60.454884 67.403133 85.647659 104.953354 215.97696 171.995259 361.962845 171.995259 1.315972 0 2.608407-0.041956 3.924379-0.041955-18.11866-36.617989-40.066531-85.117586-66.638723-148.340514-31.377638-74.67884-50.451042-147.915841-60.347436-218.246652zM44.961516 502.612189a511.850597 511.850597 0 0 0-0.084934 9.03784c0 92.203982 26.678616 178.149423 72.717161 250.580059 47.449685-39.73805 98.091062-99.268888 118.787431-181.713598-78.562287-23.125697-143.991462-52.827159-191.419658-77.904301z" fill="#4382BC" p-id="18403"></path></svg>